# xmcd CD database file
#
# Track frame offsets:
#	150
#	28728
#	62761
#	100795
#	140080
#	196356
#	222880
#	260139
#	281306
#
# Disc length: 4131 seconds
#
# Revision: 0
# Processed by: cddbd v1.5.2PL0 Copyright (c) Steve Scherf et al.
# Submitted via: CDex 1.70beta2
#
DISCID=8a102109
DTITLE=Odean Pope - Odean's 3
DYEAR=2011
DGENRE=Jazz
TTITLE0=Phrygian A  Tois
TTITLE1=Fresh Breeze
TTITLE2=The Garden Of Happiness
TTITLE3=Good Question Two
TTITLE4=Blues It
TTITLE5=Blues For Eight
TTITLE6=Almost Like Pt. One
TTITLE7=12th Night
TTITLE8=You And Me
EXTD=YEAR: 2011
EXTT0=
EXTT1=
EXTT2=
EXTT3=
EXTT4=
EXTT5=
EXTT6=
EXTT7=
EXTT8=
PLAYORDER=
